<svg width="32" height="32" viewBox="0 0 32 32" fill="none" xmlns="http://www.w3.org/2000/svg">
<path fill-rule="evenodd" clip-rule="evenodd" d="M5.33333 0H26.6667C28.1669 0 29.4015 0.524472 30.428 1.54468C31.4832 2.58644 32 3.84373 32 5.33812V26.6834C32 28.1419 31.4832 29.4136 30.428 30.4553C29.4015 31.4683 28.1669 32 26.6667 32H5.33333C3.83311 32 2.58412 31.4683 1.54329 30.4553C0.516823 29.4136 0 28.1419 0 26.6834V5.33812C0 3.84373 0.516823 2.58644 1.54329 1.54468C2.58412 0.524472 3.83311 0 5.33333 0Z" fill="#003499"/>
<path fill-rule="evenodd" clip-rule="evenodd" d="M24.4414 18.1482H26.1642L28.3104 15.9857H25.9703L24.4414 18.1482ZM23.8097 18.7014H21.3189V23.3283C21.3189 24.564 21.642 25.4765 22.2449 26.0943C22.7833 26.6332 23.4795 26.8774 24.3768 26.8774C25.6114 26.8774 26.5374 26.3889 27.1045 25.4262H27.126V26.6835H29.3225V18.7014H26.8317V23.357C26.8317 23.5725 26.8174 23.7522 26.7815 23.8456C26.4872 24.5353 25.9991 24.8873 25.2525 24.8873C24.2979 24.8873 23.8097 24.2192 23.8097 22.9044V18.7014ZM17.4284 21.3381C15.8062 21.3381 14.5715 21.5824 13.7101 22.1213C12.8272 22.6601 12.375 23.4432 12.375 24.4634C12.375 25.1029 12.6334 25.6704 13.0928 26.1446C13.6096 26.6332 14.2772 26.8774 15.0883 26.8774C16.1938 26.8774 17.0121 26.5182 17.5791 25.85H17.6437V26.6835H19.9192V21.9776C19.9192 20.9214 19.6249 20.1024 19.1081 19.5205C18.4549 18.8379 17.5002 18.4787 16.2297 18.4787C14.9304 18.4787 13.8393 18.723 12.978 19.2546L13.4446 20.8209C14.148 20.397 14.9304 20.1886 15.8062 20.1886C16.9116 20.1886 17.4284 20.5263 17.4284 21.2591V21.3381ZM11.3988 18.7014H9.86986V15.9857H7.46519V18.7014H6.32387V20.5263H7.46519V23.7522C7.46519 24.8586 7.67336 25.6704 8.13275 26.1446C8.58497 26.6332 9.25254 26.8774 10.0637 26.8774C10.602 26.8774 11.0255 26.8128 11.4131 26.6619L11.3988 24.7939C11.3198 24.8586 11.1691 24.8873 10.925 24.8873C10.5374 24.8873 10.2575 24.7436 10.0637 24.4634C9.93446 24.2551 9.86986 23.8959 9.86986 23.357V20.5263H11.3988V18.7014ZM14.6648 24.2551C14.6648 23.3139 15.6267 22.8685 17.5002 22.9044V23.7522L17.4786 24.2192C17.3853 24.5353 17.1556 24.7939 16.8613 24.952C16.5886 25.1963 16.2297 25.3112 15.8564 25.3112C15.074 25.3112 14.6648 24.952 14.6648 24.2551ZM2.64868 26.6835H5.1682V15.9857H2.64868V26.6835Z" fill="#FFEC00"/>
</svg>
